<?xml version="1.0" encoding="UTF-8"?>
<!-- Created with Inkscape (http://www.inkscape.org/) -->
<svg width="735.87" height="227.17" version="1.1" viewBox="0 0 735.87 227.17" xml:space="preserve" xmlns="http://www.w3.org/2000/svg"><defs><clipPath id="clipPath24"><path d="m0 720h720v-720h-720z"/></clipPath></defs><g transform="matrix(1.3333 0 0 -1.3333 -95.79 642.21)"><g transform="translate(605.67 461.34)"><path d="m0 0h-3.501v1.665h8.867v-1.665h-3.501v-7.869h-1.865z" fill="#c9ac68"/></g><g transform="translate(611.89 463.01)"><path d="m0 0h2.746l3.147-6.83 3.143 6.83h2.83v-9.534h-1.862v7.6l-3.474-7.6h-1.322l-3.414 7.471v-7.471h-1.794z" fill="#c9ac68"/></g><g transform="translate(-110.43 -7.3188)" clip-path="url(#clipPath24)"><g transform="translate(331.62 332.78)"><path d="m0 0c0 0.137-0.136 0.272-0.246 0.272h-3.924v-4.905h3.924c0.11 0 0.246 0.137 0.246 0.245zm2.644 4.225c1.117 0 2.07-0.9 2.07-2.072v-8.421c0-1.117-0.953-2.071-2.07-2.071h-0.137l2.262-5.832h-4.633l-2.289 5.832h-2.017v-5.832h-4.742v18.396z" fill="#a7a9ac"/></g><g transform="translate(340.53 337)"><path d="m0 0h12.018v-3.952h-7.303v-3.216h6.322v-3.924h-6.322v-3.325h7.303v-3.979h-12.018z" fill="#a7a9ac"/></g><g transform="translate(356.44 337)"><path d="m0 0h4.715v-14.417h5.859v-3.979h-10.574z" fill="#a7a9ac"/></g><path d="m375.08 318.61h-4.715v18.396h4.715z" fill="#a7a9ac"/><g transform="translate(388.38 327.16)"><path d="m0 0v5.532c0 0.326-0.272 0.545-0.654 0.545h-2.943c-0.327 0-0.572-0.246-0.572-0.545v-5.532zm4.742-8.558h-4.742v4.579h-4.169v-4.579h-4.743v16.243c0 1.281 0.872 2.153 2.153 2.153h9.348c1.281 0 2.153-0.872 2.153-2.153z" fill="#a7a9ac"/></g><g transform="translate(406.75 325.86)"><path d="m0 0c0 0.137-0.082 0.3-0.272 0.3h-4.251v-4.061h4.251c0.19 0 0.272 0.137 0.272 0.273zm0 7.194c0 0.137-0.082 0.3-0.272 0.3h-4.251v-3.815h4.251c0.19 0 0.272 0.136 0.272 0.3zm-9.238-14.443v18.395h11.337c1.499 0 2.452-0.954 2.452-2.316v-4.088c0-1.254-0.817-2.453-2.507-2.861 1.69-0.409 2.643-1.554 2.643-2.78v-4.006c0-1.445-0.953-2.344-2.452-2.344z" fill="#a7a9ac"/></g><g transform="translate(415.55 337)"><path d="m0 0h4.715v-14.417h5.859v-3.979h-10.574z" fill="#a7a9ac"/></g><g transform="translate(429.48 337)"><path d="m0 0h12.018v-3.952h-7.303v-3.216h6.322v-3.924h-6.322v-3.325h7.303v-3.979h-12.018z" fill="#a7a9ac"/></g><path d="m450.06 318.61h-5.096v4.987h5.096z" fill="#a7a9ac"/><g transform="translate(459.73 322.59)"><path d="m0 0h6.895c0.19 0 0.299 0.109 0.299 0.245v2.671c0 0.137-0.109 0.245-0.299 0.245h-4.742c-1.281 0-2.153 0.872-2.153 2.153v6.95c0 1.281 0.872 2.153 2.153 2.153h9.511v-3.952h-6.65c-0.163 0-0.272-0.136-0.272-0.3v-2.697c0-0.11 0.109-0.246 0.272-0.246h4.742c1.281 0 2.153-0.872 2.153-2.153v-6.894c0-1.281-0.872-2.154-2.153-2.154h-9.756z" fill="#a7a9ac"/></g><g transform="translate(487.06 337)"><path d="m0 0v-3.979h-4.17v-14.417h-4.742v14.417h-4.169v3.979z" fill="#a7a9ac"/></g><g transform="translate(498.64 327.16)"><path d="m0 0v5.532c0 0.326-0.272 0.545-0.654 0.545h-2.943c-0.327 0-0.572-0.246-0.572-0.545v-5.532zm4.742-8.558h-4.742v4.579h-4.169v-4.579h-4.743v16.243c0 1.281 0.872 2.153 2.153 2.153h9.348c1.281 0 2.153-0.872 2.153-2.153z" fill="#a7a9ac"/></g><g transform="translate(517.01 325.86)"><path d="m0 0c0 0.137-0.082 0.3-0.272 0.3h-4.251v-4.061h4.251c0.19 0 0.272 0.137 0.272 0.273zm0 7.194c0 0.137-0.082 0.3-0.272 0.3h-4.251v-3.815h4.251c0.19 0 0.272 0.136 0.272 0.3zm-9.238-14.443v18.395h11.337c1.499 0 2.452-0.954 2.452-2.316v-4.088c0-1.254-0.817-2.453-2.507-2.861 1.69-0.409 2.643-1.554 2.643-2.78v-4.006c0-1.445-0.953-2.344-2.452-2.344z" fill="#a7a9ac"/></g><g transform="translate(525.81 337)"><path d="m0 0h4.715v-14.417h5.859v-3.979h-10.574z" fill="#a7a9ac"/></g><g transform="translate(539.74 337)"><path d="m0 0h12.019v-3.952h-7.304v-3.216h6.322v-3.924h-6.322v-3.325h7.304v-3.979h-12.019z" fill="#a7a9ac"/></g><path d="m560.32 318.61h-5.096v4.987h5.096z" fill="#a7a9ac"/><g transform="translate(583.7 325.47)"><path d="m0 0v-4.769c0-1.199-0.98-2.098-2.152-2.098h-9.24c-1.171 0-2.097 0.899-2.097 2.098v14.226c0 1.117 0.926 2.071 2.097 2.071h9.24c1.172 0 2.152-0.954 2.152-2.071v-4.742h-4.742v2.561c0 0.164-0.136 0.3-0.245 0.3h-3.461c-0.163 0-0.3-0.136-0.3-0.3v-9.892c0-0.163 0.137-0.273 0.3-0.273h3.461c0.109 0 0.245 0.11 0.245 0.273v2.616z" fill="#a7a9ac"/></g><g transform="translate(592.31 337)"><path d="m0 0v-14.172c0-0.136 0.136-0.245 0.245-0.245h3.461c0.163 0 0.3 0.109 0.3 0.245v14.172h4.742v-16.297c0-1.199-0.927-2.099-2.071-2.099h-9.321c-1.117 0-2.098 0.9-2.098 2.099v16.297z" fill="#a7a9ac"/></g><g transform="translate(614.52 332.78)"><path d="m0 0c0 0.137-0.136 0.272-0.245 0.272h-3.924v-4.905h3.924c0.109 0 0.245 0.137 0.245 0.245zm2.644 4.225c1.117 0 2.071-0.9 2.071-2.072v-8.421c0-1.117-0.954-2.071-2.071-2.071h-0.136l2.262-5.832h-4.633l-2.289 5.832h-2.017v-5.832h-4.742v18.396z" fill="#a7a9ac"/></g><g transform="translate(632.34 332.78)"><path d="m0 0c0 0.137-0.136 0.272-0.245 0.272h-3.924v-4.905h3.924c0.109 0 0.245 0.137 0.245 0.245zm2.644 4.225c1.117 0 2.071-0.9 2.071-2.072v-8.421c0-1.117-0.954-2.071-2.071-2.071h-0.136l2.262-5.832h-4.633l-2.289 5.832h-2.017v-5.832h-4.742v18.396z" fill="#a7a9ac"/></g><g transform="translate(641.25 337)"><path d="m0 0h12.019v-3.952h-7.304v-3.216h6.322v-3.924h-6.322v-3.325h7.304v-3.979h-12.019z" fill="#a7a9ac"/></g><g transform="translate(661.53 328.72)"><path d="m0 0v-10.11h-4.36v18.395h4.36l5.505-10.138v10.138h4.36v-18.395h-4.496z" fill="#a7a9ac"/></g><g transform="translate(689.27 325.47)"><path d="m0 0v-4.769c0-1.199-0.98-2.098-2.152-2.098h-9.24c-1.171 0-2.097 0.899-2.097 2.098v14.226c0 1.117 0.926 2.071 2.097 2.071h9.24c1.172 0 2.152-0.954 2.152-2.071v-4.742h-4.742v2.561c0 0.164-0.136 0.3-0.245 0.3h-3.461c-0.163 0-0.3-0.136-0.3-0.3v-9.892c0-0.163 0.137-0.273 0.3-0.273h3.461c0.109 0 0.245 0.11 0.245 0.273v2.616z" fill="#a7a9ac"/></g><g transform="translate(696.9 318.61)"><path d="m0 0v5.396h-2.452c-1.118 0-2.071 0.981-2.071 2.18v10.82h4.741v-8.476c0-0.137 0.164-0.273 0.3-0.273h3.788c0.164 0 0.191 0.136 0.191 0.273v8.476h4.741v-10.82c0-1.199-0.953-2.18-2.071-2.18h-2.425v-5.396z" fill="#a7a9ac"/></g><path d="m713.77 318.61h-5.097v4.987h5.097z" fill="#a7a9ac"/><g transform="translate(376.79 443.42)"><path d="m0 0c0 1.057-0.88 1.937-1.937 1.937h-24.141c-0.705 0-1.585-0.88-1.585-1.937v-63.961c0-0.881 0.88-1.586 1.585-1.586h24.141c1.057 0 1.937 0.705 1.937 1.586zm16.739 27.663c8.282 0 13.919-5.638 13.919-13.92v-91.094c0-8.282-5.637-13.921-13.919-13.921h-61.141c-8.282 0-13.919 5.639-13.919 13.921v91.094c0 8.282 5.637 13.92 13.919 13.92z" fill="#c9ac68"/></g><g transform="translate(433.36 377.87)"><path d="m0 0h44.577c1.235 0 1.94 0.705 1.94 1.586v17.268c0 0.881-0.705 1.586-1.94 1.586h-30.658c-8.282 0-13.919 5.638-13.919 13.919v44.931c0 8.282 5.637 13.921 13.919 13.921h61.494v-25.55h-42.993c-1.057 0-1.762-0.88-1.762-1.937v-17.444c0-0.705 0.705-1.587 1.762-1.587h30.658c8.283 0 13.92-5.638 13.92-13.919v-44.578c0-8.282-5.637-13.921-13.92-13.921h-63.078z" fill="#c9ac68"/></g><g transform="translate(536.62 471.08)"><path d="m0 0h30.48v-93.211h37.883v-25.724h-68.363z" fill="#c9ac68"/></g><g transform="translate(680.41 443.42)"><path d="m0 0c0 1.057-0.883 1.937-1.937 1.937h-24.141c-0.705 0-1.585-0.88-1.585-1.937v-63.961c0-0.881 0.88-1.586 1.585-1.586h24.141c1.054 0 1.937 0.705 1.937 1.586zm16.739 27.663c8.282 0 13.919-5.638 13.919-13.92v-91.094c0-8.282-5.637-13.921-13.919-13.921h-61.141c-8.282 0-13.919 5.639-13.919 13.921v91.094c0 8.282 5.637 13.92 13.919 13.92z" fill="#c9ac68"/></g><g transform="translate(284.64 457.78)"><path d="m0 0h-14.5v-10.194h-14.233v10.771h-30.178v-10.771h-14.449v10.194h-29v-82.403l29.271-18.481v47.159c0 5.428 3.694 9.123 9.123 9.123h40.072c5.428 0 9.123-3.695 9.123-9.123v-48.577l0.061 0.035 29.21 19.864v82.403z" fill="#c9ac68"/></g><g transform="translate(248.5 396.31)"><path d="m0 0h-15.822c-0.462 0-1.039-0.577-1.039-1.27v-41.921c0-0.577 0.577-1.039 1.039-1.039h15.822c0.693 0 1.27 0.462 1.27 1.039v41.921c0 0.693-0.577 1.27-1.27 1.27" fill="#c9ac68"/></g><g transform="translate(236.37 488.78)"><path d="m 0,0 v -20.818 c 11.1,9.088 22.199,0.689 33.299,9.777 C 22.199,-13.19 11.1,2.149 0,0" fill="#c9ac68"/></g></g></g></svg>
